<?xml version="1.0" encoding="UTF-8"?>
<svg version="1.1" xmlns="http://www.w3.org/2000/svg" width="1024" height="1024">
<path d="M0 0 C0.91023422 -0.00350464 1.82046844 -0.00700928 2.75828552 -0.01062012 C5.74079213 -0.01935859 8.72305775 -0.01361527 11.70556641 -0.00683594 C13.79627528 -0.00818508 15.88698384 -0.0101277 17.97769165 -0.01263428 C22.3502299 -0.01557508 26.72268616 -0.0113224 31.09521484 -0.00195312 C36.67541235 0.00942653 42.25541712 0.00288463 47.83560753 -0.00909805 C52.15096463 -0.01635698 56.46627676 -0.01401002 60.78163528 -0.00884247 C62.83794808 -0.00751637 64.89426508 -0.00911688 66.95057297 -0.01380157 C96.13465098 -0.06569699 96.13465098 -0.06569699 107.11181641 9.76269531 C110.89116253 13.98263879 112.4892624 18.97154811 114.12744141 24.29785156 C114.38205643 25.11534378 114.63667145 25.932836 114.89900208 26.77510071 C118.61915496 38.9084956 121.83275308 51.19034778 125.11962891 63.44628906 C126.43155524 68.3368324 127.74867514 73.2259349 129.06884766 78.11425781 C129.50954842 79.76750313 129.50954842 79.76750313 129.95915222 81.45414734 C130.23987076 82.49335831 130.52058929 83.53256927 130.80981445 84.60327148 C131.17238594 85.95626595 131.17238594 85.95626595 131.5422821 87.33659363 C132.27820109 89.75330076 133.09459355 92.08091881 133.98774433 94.44142628 C134.39335637 95.51562391 134.39335637 95.51562391 134.80716258 96.6115225 C135.11652091 97.42691945 135.11652091 97.42691945 135.43212891 98.25878906 C136.28090512 98.2576499 137.12968134 98.25651074 138.00417805 98.25533706 C188.34168194 98.18816087 238.67918106 98.13670818 289.01672083 98.10559307 C295.06469547 98.10184108 301.11267002 98.0979581 307.16064453 98.09399414 C308.36465593 98.09320721 309.56866733 98.09242028 310.80916393 98.0916095 C330.28847976 98.07856583 349.76776896 98.0549177 369.247069 98.02733067 C389.24384404 97.99924759 409.24060515 97.98260666 429.2373991 97.97652358 C441.57030675 97.97241317 453.90313909 97.95944414 466.23602355 97.93503966 C474.70025818 97.91914663 483.16445405 97.91439677 491.62870252 97.91828493 C496.50757826 97.92020092 501.38632265 97.91732348 506.26517487 97.90117264 C510.74163765 97.88646291 515.21788206 97.88590773 519.69435537 97.89609238 C521.30432426 97.89734921 522.91430736 97.89363803 524.52424872 97.88413952 C544.17646245 97.77504008 562.41424184 100.54394579 577.18212891 114.80175781 C589.7414014 128.51665781 595.82242423 143.55252086 595.43212891 162.25878906 C593.68058121 179.02659744 588.99876034 195.55243717 585.12213516 211.9316597 C583.58457468 218.43459599 582.05842114 224.94022754 580.5314045 231.44564629 C580.1445738 233.09333277 579.75750241 234.74096277 579.37019157 236.38853645 C576.88422542 246.96650529 574.44402026 257.55318074 572.07885742 268.15883064 C571.63607596 270.14384185 571.19190166 272.12853644 570.74731445 274.11314392 C569.09721952 281.48319306 569.09721952 281.48319306 567.47052002 288.85842896 C560.54732403 320.48613891 548.77023061 351.03897161 520.24462891 369.32128906 C496.13152108 384.07880269 471.43309275 383.41338976 444.07714844 383.34057617 C441.32110178 383.33643652 438.56505424 383.33387052 435.80900574 383.33128357 C429.89973319 383.32502094 423.9904748 383.31530433 418.08121109 383.3033886 C409.52787621 383.28632322 400.97454475 383.27683352 392.42119657 383.26950986 C378.52705008 383.2575967 364.63290908 383.24265904 350.73876953 383.22436523 C349.49449038 383.22273005 349.49449038 383.22273005 348.22507428 383.22106183 C336.4375351 383.20543114 324.65000242 383.1868276 312.86246954 383.16706396 C312.03113096 383.16567065 311.19979238 383.16427733 310.34326172 383.1628418 C309.51294544 383.16144827 308.68262917 383.16005474 307.82715179 383.15861898 C293.97381543 383.13557066 280.1204833 383.12026534 266.26713073 383.11128241 C257.73581189 383.1054397 249.2045516 383.09309644 240.67325585 383.07230962 C234.83124642 383.05858301 228.9892574 383.05210762 223.14723201 383.0512995 C219.77996413 383.05059701 216.41285302 383.04553094 213.04559517 383.03383636 C209.39077831 383.02163427 205.73616051 383.02180552 202.08132935 383.02500916 C201.02442024 383.01850135 199.96751114 383.01199355 198.87857449 383.00528854 C190.16173773 383.03499541 182.41001611 383.57911343 175.43212891 389.25878906 C170.38156104 394.9918661 170.1381977 398.51983512 170.22119141 406.05566406 C170.58775009 411.62192552 172.32708141 414.17829818 176.24462891 418.00878906 C183.15865496 422.88927804 189.76849075 422.54031005 197.94454956 422.50361633 C199.21809992 422.50588091 200.49165028 422.50814548 201.80379307 422.51047868 C205.33212341 422.51657013 208.86034092 422.51034405 212.38866305 422.50216806 C216.19652145 422.4955723 220.00436564 422.5005894 223.81222534 422.50439453 C230.40919863 422.50961483 237.00614253 422.50812543 243.60311508 422.50261879 C254.03174996 422.49440144 264.46032157 422.50563771 274.88894653 422.51982117 C278.4581202 422.5244221 282.02729404 422.52887248 285.59646797 422.53325939 C286.48839657 422.53435753 287.38032518 422.53545567 288.29928192 422.53658709 C298.44821672 422.54875718 308.59715356 422.55631216 318.74609375 422.56225586 C319.67367407 422.56280392 320.60125438 422.56335198 321.55694319 422.56391665 C336.59230369 422.57237793 351.62764629 422.56903657 366.66300689 422.56310151 C382.10376415 422.55748414 397.54443124 422.571017 412.98516095 422.6006543 C422.50709315 422.61819447 432.02876468 422.61982981 441.55069567 422.60100915 C448.07592069 422.58940365 454.60096978 422.59585058 461.12617193 422.61647836 C464.89030751 422.6277981 468.65398973 422.63097559 472.41810608 422.61230278 C476.50101327 422.59223599 480.58284521 422.61080164 484.66574097 422.63301086 C485.85232139 422.62097337 487.0389018 422.60893587 488.2614392 422.5965336 C496.16779306 422.68433593 501.24457709 424.1762678 506.94817817 429.73681337 C512.10534853 435.51265774 512.89709524 440.81540486 512.74072266 448.32128906 C512.03771546 455.01320566 508.18059993 458.87258869 503.21337891 463.09472656 C501.2913361 464.35079839 499.67567591 464.83566397 497.43212891 465.25878906 C497.76986328 465.93683594 498.10759766 466.61488281 498.45556641 467.31347656 C505.93187715 482.91433309 506.10655744 497.96940714 500.43212891 514.25878906 C494.81292667 527.89451622 484.84267445 539.78651805 471.43212891 546.25878906 C455.62791854 552.70156227 439.89467224 554.64701643 423.55273438 548.55859375 C407.62606979 541.8504092 396.1880148 531.12751768 389.46337891 515.13378906 C383.42060554 498.28726937 384.44460818 483.56300409 391.43212891 467.25878906 C351.17212891 467.25878906 310.91212891 467.25878906 269.43212891 467.25878906 C271.08212891 471.21878906 272.73212891 475.17878906 274.43212891 479.25878906 C277.63286946 495.26249185 275.27473055 511.40418649 266.43212891 525.25878906 C255.48105725 539.57134075 241.61040349 548.52263081 223.86962891 551.94628906 C207.31939106 553.45085614 191.24587922 549.21598782 178.17431641 538.71191406 C171.87567439 533.37045144 167.14710056 527.67634913 163.43212891 520.25878906 C162.85205078 519.20884766 162.85205078 519.20884766 162.26025391 518.13769531 C155.72374169 505.98830847 155.09694622 491.48727808 158.43212891 478.25878906 C159.63516943 475.00682014 160.9500325 471.86469634 162.40869141 468.71972656 C163.62412435 466.24133146 163.62412435 466.24133146 163.43212891 463.25878906 C161.34184492 461.67662327 161.34184492 461.67662327 158.61962891 460.19628906 C141.99913754 449.9765004 131.85477339 435.73451348 126.43212891 417.25878906 C122.88019554 397.48491613 127.39352071 379.40876417 138.63916016 363.04785156 C143.2495265 357.15368793 148.34257695 352.5705133 154.43212891 348.25878906 C153.02359998 340.49335751 151.06150392 332.94445767 148.93212891 325.34863281 C148.39868671 323.42834759 147.86524452 321.50806237 147.33180237 319.58777714 C146.76229125 317.54039075 146.19099155 315.49351137 145.61914062 313.44677734 C144.40868219 309.11427759 143.20323958 304.78039177 141.99853516 300.44628906 C140.5263358 295.15100516 139.05301345 289.85603638 137.57820129 284.56147957 C135.00070533 275.30783679 132.43204066 266.05177571 129.86962891 256.79394531 C129.68588778 256.1301203 129.50214664 255.46629528 129.3128376 254.78235435 C128.38884546 251.4439419 127.46502361 248.10548236 126.54129028 244.76699829 C124.85907803 238.68752404 123.17557504 232.60840719 121.4920826 226.52928734 C120.9288157 224.49530557 120.36558299 222.46131434 119.80235291 220.42732239 C117.37787488 211.67211096 114.95192653 202.91730775 112.52530861 194.16268921 C110.84808331 188.11148117 109.17127883 182.06015654 107.49462891 176.00878906 C107.31148006 175.34779205 107.12833122 174.68679504 106.93963242 174.00576782 C102.38801504 157.57796381 97.84705333 141.14726403 93.32275391 124.71191406 C93.10959974 123.93761803 92.89644558 123.16332199 92.6768322 122.36556244 C90.60499585 114.83904762 88.53400558 107.31230094 86.46508312 99.78498459 C85.70726214 97.0280767 84.9490926 94.27126477 84.19079399 91.51448822 C83.82564914 90.18684898 83.46062283 88.85917712 83.09572029 87.53147125 C81.19293172 80.60941558 79.2771977 73.69140507 77.328125 66.78222656 C76.99914719 65.61530273 76.67016937 64.44837891 76.33122253 63.24609375 C75.71396274 61.06115808 75.09439158 58.8768736 74.47212219 56.69335938 C74.20199814 55.7378418 73.93187408 54.78232422 73.65356445 53.79785156 C73.41639206 52.96463379 73.17921967 52.13141602 72.93486023 51.27294922 C72.43212891 49.25878906 72.43212891 49.25878906 72.43212891 47.25878906 C71.45653015 47.26323029 70.4809314 47.26767151 69.47576904 47.27224731 C60.23778335 47.31296266 50.9998161 47.34285421 41.76176071 47.36241341 C37.01349876 47.37280732 32.2653098 47.38688538 27.51708984 47.40966797 C22.92645815 47.43155414 18.33589625 47.44339063 13.74521637 47.44854355 C12.00232089 47.4522112 10.25942881 47.45937236 8.51656342 47.47024918 C-18.03146838 47.62919328 -18.03146838 47.62919328 -25.17333984 41.66894531 C-30.20960331 36.57625313 -32.36585076 30.89029221 -32.67333984 23.84082031 C-32.3559431 16.25856486 -29.30935925 10.91991112 -23.93115234 5.65722656 C-17.05742694 0.17747344 -8.44855988 -0.04078269 0 0 Z M147.43212891 145.25878906 C147.74180903 146.83671883 148.05315026 148.41432264 148.36517334 149.99179077 C148.53836971 150.87035421 148.71156609 151.74891766 148.89001083 152.65410423 C149.6805293 156.45226476 150.67173072 160.18264298 151.69775391 163.92285156 C151.92322906 164.75505722 152.14870422 165.58726288 152.38101196 166.44468689 C153.14461879 169.25866629 153.91330002 172.07123227 154.68212891 174.88378906 C155.24365285 176.94746535 155.80500706 179.01118782 156.36621094 181.07495117 C162.91596532 205.12971578 169.54640146 229.16258163 176.1640625 253.19873047 C183.96634921 281.53954127 191.71789765 309.89387222 199.43212891 338.25878906 C200.09212891 337.92878906 200.75212891 337.59878906 201.43212891 337.25878906 C201.76212891 337.58878906 202.09212891 337.91878906 202.43212891 338.25878906 C203.89508809 338.35907372 205.36286899 338.389854 206.82925797 338.39301014 C207.78464911 338.39746798 208.74004025 338.40192583 209.72438264 338.40651876 C211.31756464 338.40624221 211.31756464 338.40624221 212.94293213 338.40596008 C214.62104591 338.41147512 214.62104591 338.41147512 216.33306098 338.41710156 C220.1138095 338.42818933 223.89453058 338.43199092 227.67529297 338.43579102 C230.37352667 338.44205209 233.07175739 338.44868547 235.76998901 338.45570374 C243.89428815 338.47549839 252.01858859 338.48554169 260.14290583 338.49443153 C263.9696178 338.49881267 267.79632838 338.50418022 271.62303925 338.50942039 C284.34818866 338.52644159 297.07333719 338.54093255 309.79849625 338.54816914 C313.10345714 338.55007904 316.40841804 338.55199936 319.71337891 338.55395508 C320.53481305 338.55443882 321.35624719 338.55492256 322.20257327 338.55542096 C335.48894901 338.56370898 348.77523435 338.58902108 362.06157067 338.62153576 C375.70656665 338.65465513 389.35151681 338.67262261 402.99655318 338.67581338 C410.65580195 338.67797481 418.3149192 338.68666866 425.97412872 338.71227455 C432.50245841 338.73404894 439.03062469 338.74199934 445.55898657 338.73230777 C448.88629514 338.72778127 452.21299543 338.73176017 455.54030228 338.74906921 C474.68928114 338.8430778 490.80677085 338.18751795 505.68212891 324.63378906 C515.28336302 314.12170492 517.58571715 300.77265051 520.55712891 287.32128906 C521.02635138 285.25228633 521.49700692 283.18360815 521.96899414 281.11523438 C523.21844482 275.62342811 524.44955495 270.12766654 525.67706299 264.63092041 C526.92672379 259.04992376 528.19335003 253.47278882 529.45947266 247.89550781 C530.97614152 241.21199948 532.49130227 234.52818002 533.99633789 227.84204102 C536.41442685 217.10620423 538.85809884 206.37761528 541.37744141 195.66503906 C541.72816963 194.17118683 541.72816963 194.17118683 542.08598328 192.64715576 C543.18321832 187.9772261 544.28627517 183.30880033 545.39916992 178.64257812 C545.78923767 176.98864807 546.17913999 175.334679 546.56884766 173.68066406 C546.74429108 172.95496216 546.9197345 172.22926025 547.10049438 171.48156738 C549.35474668 161.98527751 549.35474668 161.98527751 548.43212891 152.44628906 C545.97765754 148.53447532 543.75539386 146.68908864 539.43212891 145.25878906 C534.19231953 144.67057501 528.97207936 144.73582216 523.70851135 144.777771 C522.08554549 144.77602599 520.46258072 144.77252238 518.83962196 144.76741433 C514.38587572 144.75847657 509.93251475 144.77446144 505.47881758 144.79452658 C500.67385164 144.81180448 495.86890733 144.80595463 491.06391907 144.80291748 C482.74096596 144.80082034 474.4181383 144.81336766 466.09521675 144.83586884 C454.06169834 144.8683805 442.02824059 144.87879501 429.99468302 144.8838208 C410.47094895 144.89257475 390.94728175 144.91919308 371.42358398 144.95703125 C352.45841812 144.99374873 333.49327041 145.02206179 314.52807617 145.0390625 C312.77448137 145.04063884 312.77448137 145.04063884 310.98546041 145.04224703 C305.12059903 145.04746719 299.25573753 145.05252202 293.39087594 145.05749464 C244.73791405 145.0989598 196.08502474 145.16941099 147.43212891 145.25878906 Z M199.86962891 478.71191406 C195.25740541 483.67506761 194.08053176 488.44538372 194.22900391 495.11425781 C194.91076267 502.31205702 197.91221831 506.26926776 203.39697266 510.81347656 C208.33381516 514.31948756 213.49995568 515.7801822 219.55322266 514.97753906 C226.24163997 513.46031774 230.92045946 510.48282737 235.43212891 505.25878906 C238.81600342 499.42452265 239.26843517 493.93001378 238.43212891 487.25878906 C236.83486508 481.41220073 233.52199879 477.83355047 228.58837891 474.44628906 C218.57817691 468.9334242 207.96813637 471.13830986 199.86962891 478.71191406 Z M428.90087891 476.76660156 C424.32442192 481.41608712 422.60618417 486.6479601 422.18212891 493.00878906 C422.3058978 498.56807512 423.43052975 503.09570207 427.27197266 507.24707031 C433.61171496 512.94929663 438.82053638 515.34730763 447.43212891 515.25878906 C455.15297125 513.88756746 459.92203218 510.36338238 464.80712891 504.32128906 C467.68140026 498.75543309 467.33379733 492.29723515 466.43212891 486.25878906 C464.01417029 480.3960675 460.1773081 476.02089444 454.43212891 473.25878906 C445.46784517 470.28625748 436.47419965 470.72937889 428.90087891 476.76660156 Z " fill="#8C56FE" transform="translate(181.56787109375,235.7412109375)"/>
<path d="M0 0 C6.29813325 3.53456445 10.39033435 8.06660542 12.6875 14.9375 C13.84435244 22.86498359 12.41768676 29.44486385 7.6875 35.9375 C2.49700498 40.99195382 -2.79438231 43.95468498 -10.0625 44.3125 C-17.30019327 44.12967565 -22.83582116 41.57436458 -28.1875 36.75 C-32.59165499 31.97798056 -33.94557167 26.82050829 -34.75 20.5 C-33.94430601 13.93934892 -31.99750097 8.02476439 -27 3.5 C-18.67021773 -2.71651827 -9.59363333 -4.37781762 0 0 Z " fill="#8D57FE" transform="translate(579.3125,492.0625)"/>
<path d="M0 0 C5.57939131 4.25546795 8.40300229 9.32571873 9.5703125 16.23046875 C9.97102021 22.94759531 8.05533498 28.33192642 4.15625 33.78125 C-1.09262728 38.99779334 -6.74609558 41.74599924 -14.15625 42.15625 C-20.30462282 41.97024881 -25.36643832 40.08397019 -29.89453125 35.875 C-34.92871734 30.28840839 -37.70771345 25.48091868 -37.84375 17.78125 C-37.25870967 11.47581535 -35.3422384 6.31356162 -30.84375 1.78125 C-21.33347133 -5.51689625 -10.31569992 -6.81885249 0 0 Z " fill="#8D57FE" transform="translate(483.84375,494.21875)"/>
<path d="M0 0 C5.01490977 4.35532873 8.08391467 8.98152097 9.00390625 15.625 C9.24524476 22.35133785 8.73823661 27.99482163 4.5625 33.4375 C-1.17631892 39.17631892 -6.40301662 41.57417044 -14.375 41.875 C-20.88093737 41.68006555 -25.3060341 40.25510599 -30.15234375 35.89453125 C-34.98338098 30.73276286 -37.10024402 25.47280386 -37.875 18.5 C-37.54071025 11.68048908 -34.65991013 6.21760442 -29.75 1.5625 C-20.73500217 -5.55984635 -9.83786932 -6.6452023 0 0 Z " fill="#8D57FE" transform="translate(633.4375,420.5625)"/>
<path d="M0 0 C4.34942809 4.2030531 7.06463675 7.86817426 8 14 C8.07556414 20.58487492 7.01644736 26.65238723 3 32 C-3.63881796 38.24993323 -9.83684477 40.50336435 -18.90625 40.40234375 C-23.64137875 39.78653786 -27.14712436 37.7242555 -31 35 C-31 34.34 -31 33.68 -31 33 C-31.66 33 -32.32 33 -33 33 C-38.36684923 25.75475353 -39.27677883 18.86419398 -38 10 C-35.79799539 3.62630775 -30.8037458 -0.79432091 -25 -4 C-16.36151488 -7.52400296 -7.13019363 -5.99584464 0 0 Z " fill="#8D57FE" transform="translate(535,422)"/>
<path d="M0 0 C5.52611899 4.77255731 9.58867021 10.01991132 10.75 17.375 C10.7218801 25.38917194 8.21327781 31.44344124 2.75 37.375 C-4.16400183 42.45467482 -9.81064084 43.25902544 -18.25 42.375 C-24.59908608 40.48001476 -29.44587512 37.21927895 -33.125 31.6796875 C-36.07525976 25.63575257 -37.21797814 18.77022663 -35.140625 12.28515625 C-32.00425102 5.55845942 -27.28526603 0.23775738 -20.22265625 -2.375 C-13.010882 -4.40291543 -6.64574925 -3.32287462 0 0 Z " fill="#8D57FE" transform="translate(433.25,419.625)"/>
<path d="M0 0 C0.99 0.495 0.99 0.495 2 1 C2 1.66 2 2.32 2 3 C91.76 3 181.52 3 274 3 C274 3.33 274 3.66 274 4 C138.865 4.495 138.865 4.495 1 5 C0.67 3.35 0.34 1.7 0 0 Z " fill="#9662FE" transform="translate(382,571)"/>
<path d="M0 0 C0.66 0 1.32 0 2 0 C1.98839844 1.24136719 1.97679687 2.48273438 1.96484375 3.76171875 C1.95546132 5.40364432 1.9463616 7.04557153 1.9375 8.6875 C1.92912109 9.50412109 1.92074219 10.32074219 1.91210938 11.16210938 C1.89557949 15.24499084 1.96964902 19.01651707 3 23 C-0.08151712 20.75889664 -0.90738491 17.96369451 -1.72265625 14.33203125 C-2.27833347 9.6596467 -2.12926992 4.25853984 0 0 Z " fill="#935FF9" transform="translate(151,250)"/>
<path d="M0 0 C-2.68001835 1.7866789 -5.03128744 2.9322137 -8 4.125 C-8.86625 4.47820312 -9.7325 4.83140625 -10.625 5.1953125 C-13 6 -13 6 -16 6 C-14.73299277 5.0158875 -13.4612381 4.03788503 -12.1875 3.0625 C-11.47980469 2.51722656 -10.77210938 1.97195312 -10.04296875 1.41015625 C-6.38135899 -1.11726464 -4.17547802 -1.01565682 0 0 Z " fill="#915DF8" transform="translate(171,238)"/>
<path d="M0 0 C0.66 0.33 1.32 0.66 2 1 C1.34 4.96 0.68 8.92 0 13 C-0.66 12.67 -1.32 12.34 -2 12 C-1.85831863 10.56208484 -1.71148957 9.1246763 -1.5625 7.6875 C-1.48128906 6.88699219 -1.40007813 6.08648437 -1.31640625 5.26171875 C-1 3 -1 3 0 0 Z " fill="#935DFB" transform="translate(769,424)"/>
<path d="M0 0 C2.09749995 2.35968744 2.96905704 3.54616994 3.1875 6.75 C3.125625 7.4925 3.06375 8.235 3 9 C2.01 9.495 2.01 9.495 1 10 C0.63883954 8.5225254 0.28624952 7.04295325 -0.0625 5.5625 C-0.25972656 4.73878906 -0.45695312 3.91507812 -0.66015625 3.06640625 C-0.82837891 2.04353516 -0.82837891 2.04353516 -1 1 C-0.67 0.67 -0.34 0.34 0 0 Z " fill="#935EFD" transform="translate(261,304)"/>
<path d="M0 0 C1.98 0 3.96 0 6 0 C6 0.33 6 0.66 6 1 C4.02 1 2.04 1 0 1 C0 0.67 0 0.34 0 0 Z " fill="#9561FF" transform="translate(552,382)"/>
<path d="M0 0 C1.98 0 3.96 0 6 0 C6 0.33 6 0.66 6 1 C4.02 1 2.04 1 0 1 C0 0.67 0 0.34 0 0 Z " fill="#9662FF" transform="translate(536,382)"/>
<path d="M0 0 C1.98 0 3.96 0 6 0 C6 0.33 6 0.66 6 1 C4.02 1 2.04 1 0 1 C0 0.67 0 0.34 0 0 Z " fill="#9562FE" transform="translate(480,382)"/>
<path d="M0 0 C1.98 0 3.96 0 6 0 C6 0.33 6 0.66 6 1 C4.02 1 2.04 1 0 1 C0 0.67 0 0.34 0 0 Z " fill="#9561FF" transform="translate(432,382)"/>
<path d="M0 0 C4 1 4 1 4 1 Z " fill="#9561FE" transform="translate(667,382)"/>
<path d="M0 0 C4 1 4 1 4 1 Z " fill="#9662FE" transform="translate(642,382)"/>
<path d="M0 0 C4 1 4 1 4 1 Z " fill="#9661FE" transform="translate(578,382)"/>
<path d="M0 0 C4 1 4 1 4 1 Z " fill="#9561FE" transform="translate(522,382)"/>
<path d="M0 0 C4 1 4 1 4 1 Z " fill="#9561FE" transform="translate(467,382)"/>
<path d="M0 0 C4 1 4 1 4 1 Z " fill="#9562FF" transform="translate(416,382)"/>
<path d="M0 0 C3 1 3 1 3 1 Z " fill="#9561FF" transform="translate(659,382)"/>
<path d="M0 0 C3 1 3 1 3 1 Z " fill="#9561FF" transform="translate(603,382)"/>
<path d="M0 0 C3 1 3 1 3 1 Z " fill="#9661FF" transform="translate(499,382)"/>
<path d="M0 0 C3 1 3 1 3 1 Z " fill="#9661FF" transform="translate(411,382)"/>
<path d="M0 0 C3 1 3 1 3 1 Z " fill="#9561FE" transform="translate(377,382)"/>
<path d="M0 0 C2 1 2 1 2 1 Z " fill="#9460EF" transform="translate(388,788)"/>
<path d="" fill="#9662FA" transform="translate(0,0)"/>
<path d="" fill="#9361F8" transform="translate(0,0)"/>
<path d="M0 0 C2 1 2 1 2 1 Z " fill="#975FFD" transform="translate(645,657)"/>
<path d="" fill="#9665FD" transform="translate(0,0)"/>
<path d="" fill="#9763FB" transform="translate(0,0)"/>
<path d="" fill="#9462F9" transform="translate(0,0)"/>
<path d="" fill="#9764FA" transform="translate(0,0)"/>
<path d="" fill="#9365FB" transform="translate(0,0)"/>
<path d="" fill="#9563FE" transform="translate(0,0)"/>
<path d="M0 0 C2 1 2 1 2 1 Z " fill="#9562FE" transform="translate(680,382)"/>
<path d="M0 0 C2 1 2 1 2 1 Z " fill="#9662FE" transform="translate(675,382)"/>
<path d="M0 0 C2 1 2 1 2 1 Z " fill="#9661FF" transform="translate(672,382)"/>
<path d="M0 0 C2 1 2 1 2 1 Z " fill="#9463FF" transform="translate(656,382)"/>
<path d="M0 0 C2 1 2 1 2 1 Z " fill="#9662FE" transform="translate(627,382)"/>
<path d="M0 0 C2 1 2 1 2 1 Z " fill="#9662FF" transform="translate(624,382)"/>
<path d="M0 0 C2 1 2 1 2 1 Z " fill="#9562FE" transform="translate(619,382)"/>
<path d="M0 0 C2 1 2 1 2 1 Z " fill="#9563FF" transform="translate(616,382)"/>
<path d="M0 0 C2 1 2 1 2 1 Z " fill="#9561FF" transform="translate(587,382)"/>
<path d="M0 0 C2 1 2 1 2 1 Z " fill="#9563FF" transform="translate(584,382)"/>
<path d="M0 0 C2 1 2 1 2 1 Z " fill="#9562FE" transform="translate(563,382)"/>
<path d="M0 0 C2 1 2 1 2 1 Z " fill="#9662FE" transform="translate(515,382)"/>
<path d="M0 0 C2 1 2 1 2 1 Z " fill="#9562FF" transform="translate(507,382)"/>
<path d="M0 0 C2 1 2 1 2 1 Z " fill="#9563FF" transform="translate(504,382)"/>
<path d="M0 0 C2 1 2 1 2 1 Z " fill="#9661FF" transform="translate(424,382)"/>
<path d="M0 0 C2 1 2 1 2 1 Z " fill="#9562FF" transform="translate(400,382)"/>
<path d="M0 0 C2 1 2 1 2 1 Z " fill="#9663FF" transform="translate(368,382)"/>
<path d="M0 0 C2 1 2 1 2 1 Z " fill="#9562FF" transform="translate(363,382)"/>
<path d="M0 0 C2 1 2 1 2 1 Z " fill="#9662FF" transform="translate(352,382)"/>
<path d="M0 0 C2 1 2 1 2 1 Z " fill="#9461FF" transform="translate(344,382)"/>
<path d="M0 0 C2 1 2 1 2 1 Z " fill="#9561FF" transform="translate(336,382)"/>
<path d="" fill="#575757" transform="translate(0,0)"/>
<path d="" fill="#9161EE" transform="translate(0,0)"/>
<path d="" fill="#9362F0" transform="translate(0,0)"/>
<path d="" fill="#9562EF" transform="translate(0,0)"/>
<path d="" fill="#9462F1" transform="translate(0,0)"/>
<path d="" fill="#9660FE" transform="translate(0,0)"/>
<path d="" fill="#9363F7" transform="translate(0,0)"/>
<path d="" fill="#9763FD" transform="translate(0,0)"/>
<path d="" fill="#9763FA" transform="translate(0,0)"/>
<path d="" fill="#9560FF" transform="translate(0,0)"/>
<path d="" fill="#9761FD" transform="translate(0,0)"/>
<path d="" fill="#9160FA" transform="translate(0,0)"/>
<path d="" fill="#9861FF" transform="translate(0,0)"/>
<path d="" fill="#945EFE" transform="translate(0,0)"/>
<path d="" fill="#965EFF" transform="translate(0,0)"/>
<path d="" fill="#9662FE" transform="translate(0,0)"/>
<path d="" fill="#9964FC" transform="translate(0,0)"/>
<path d="" fill="#9360FA" transform="translate(0,0)"/>
<path d="" fill="#9263F6" transform="translate(0,0)"/>
<path d="" fill="#9562F8" transform="translate(0,0)"/>
<path d="" fill="#9764FD" transform="translate(0,0)"/>
<path d="" fill="#9762FD" transform="translate(0,0)"/>
<path d="" fill="#975FFE" transform="translate(0,0)"/>
<path d="" fill="#9860FE" transform="translate(0,0)"/>
<path d="" fill="#975FFD" transform="translate(0,0)"/>
<path d="" fill="#965FFE" transform="translate(0,0)"/>
<path d="" fill="#9160F4" transform="translate(0,0)"/>
<path d="" fill="#9263F6" transform="translate(0,0)"/>
<path d="" fill="#9362F6" transform="translate(0,0)"/>
<path d="" fill="#9B63FF" transform="translate(0,0)"/>
<path d="" fill="#9864F9" transform="translate(0,0)"/>
<path d="" fill="#9561FE" transform="translate(0,0)"/>
<path d="" fill="#9663FE" transform="translate(0,0)"/>
<path d="" fill="#9766FA" transform="translate(0,0)"/>
<path d="" fill="#9665FC" transform="translate(0,0)"/>
<path d="" fill="#9462FC" transform="translate(0,0)"/>
<path d="" fill="#9863FA" transform="translate(0,0)"/>
<path d="" fill="#9763FD" transform="translate(0,0)"/>
<path d="" fill="#9764FF" transform="translate(0,0)"/>
<path d="" fill="#9662FF" transform="translate(0,0)"/>
<path d="" fill="#9662FC" transform="translate(0,0)"/>
<path d="" fill="#9765FD" transform="translate(0,0)"/>
<path d="" fill="#9764FE" transform="translate(0,0)"/>
<path d="" fill="#9665FD" transform="translate(0,0)"/>
<path d="" fill="#9463FB" transform="translate(0,0)"/>
<path d="" fill="#9263FD" transform="translate(0,0)"/>
<path d="" fill="#9662FE" transform="translate(0,0)"/>
<path d="" fill="#9563FC" transform="translate(0,0)"/>
<path d="" fill="#9463FA" transform="translate(0,0)"/>
<path d="" fill="#9263FD" transform="translate(0,0)"/>
<path d="" fill="#9562FE" transform="translate(0,0)"/>
<path d="" fill="#9663FD" transform="translate(0,0)"/>
<path d="" fill="#9561FC" transform="translate(0,0)"/>
<path d="" fill="#9764FA" transform="translate(0,0)"/>
<path d="" fill="#9965F8" transform="translate(0,0)"/>
<path d="" fill="#9661FD" transform="translate(0,0)"/>
<path d="" fill="#9562FA" transform="translate(0,0)"/>
<path d="" fill="#9563F9" transform="translate(0,0)"/>
<path d="" fill="#9561FF" transform="translate(0,0)"/>
<path d="" fill="#9462FA" transform="translate(0,0)"/>
<path d="" fill="#9764FD" transform="translate(0,0)"/>
<path d="" fill="#9662FE" transform="translate(0,0)"/>
<path d="" fill="#9564FE" transform="translate(0,0)"/>
<path d="" fill="#9864FF" transform="translate(0,0)"/>
<path d="" fill="#9864FE" transform="translate(0,0)"/>
<path d="" fill="#9768FD" transform="translate(0,0)"/>
<path d="" fill="#9765FD" transform="translate(0,0)"/>
<path d="" fill="#9463F7" transform="translate(0,0)"/>
<path d="" fill="#9765FE" transform="translate(0,0)"/>
<path d="" fill="#9762FE" transform="translate(0,0)"/>
<path d="" fill="#9763FE" transform="translate(0,0)"/>
<path d="" fill="#9563FC" transform="translate(0,0)"/>
<path d="" fill="#9561FF" transform="translate(0,0)"/>
<path d="" fill="#9662FE" transform="translate(0,0)"/>
<path d="" fill="#9464FF" transform="translate(0,0)"/>
<path d="" fill="#9562FF" transform="translate(0,0)"/>
<path d="" fill="#9662FF" transform="translate(0,0)"/>
<path d="" fill="#9463FF" transform="translate(0,0)"/>
<path d="" fill="#9661FF" transform="translate(0,0)"/>
<path d="" fill="#9662FF" transform="translate(0,0)"/>
<path d="" fill="#9662FF" transform="translate(0,0)"/>
<path d="" fill="#9563FF" transform="translate(0,0)"/>
<path d="" fill="#9663FF" transform="translate(0,0)"/>
<path d="" fill="#9763FF" transform="translate(0,0)"/>
<path d="" fill="#9662FF" transform="translate(0,0)"/>
<path d="" fill="#9562FF" transform="translate(0,0)"/>
<path d="" fill="#9562FF" transform="translate(0,0)"/>
<path d="" fill="#9562FF" transform="translate(0,0)"/>
<path d="" fill="#9763FF" transform="translate(0,0)"/>
<path d="" fill="#9461FF" transform="translate(0,0)"/>
<path d="" fill="#9662FE" transform="translate(0,0)"/>
<path d="" fill="#9464FF" transform="translate(0,0)"/>
<path d="" fill="#9562FF" transform="translate(0,0)"/>
<path d="" fill="#9663FF" transform="translate(0,0)"/>
<path d="" fill="#9461FE" transform="translate(0,0)"/>
<path d="" fill="#9564FF" transform="translate(0,0)"/>
<path d="" fill="#9662FF" transform="translate(0,0)"/>
<path d="" fill="#9661FF" transform="translate(0,0)"/>
<path d="" fill="#9563FF" transform="translate(0,0)"/>
<path d="" fill="#9662FF" transform="translate(0,0)"/>
<path d="" fill="#9661FF" transform="translate(0,0)"/>
<path d="" fill="#9766FB" transform="translate(0,0)"/>
<path d="" fill="#9663FD" transform="translate(0,0)"/>
<path d="" fill="#9562FB" transform="translate(0,0)"/>
<path d="" fill="#9560FE" transform="translate(0,0)"/>
<path d="" fill="#9663FC" transform="translate(0,0)"/>
<path d="" fill="#9364FE" transform="translate(0,0)"/>
<path d="" fill="#9763FE" transform="translate(0,0)"/>
<path d="" fill="#9765F0" transform="translate(0,0)"/>
<path d="" fill="#9364E9" transform="translate(0,0)"/>
<path d="" fill="#9565F2" transform="translate(0,0)"/>
</svg>
